# File created by Blade
# Date/Time:  Mon Sep 22 21:09:19 2014
# Frame Rate: 120.000 fps
#------------------------------------------------------
:FULLY-SPECIFIED
:DEGREES
2934
root 8.537578 32.790848 -9.801282 33.365632 -21.907909 -21.386318
Spine -32.116992 -10.466323 20.751307
Head 9.907210 -7.769539 1.089017
LeftShoulder -0.311752 39.031993 30.348162
LeftArm 93.942934 26.482611 -36.043075
LeftForeArm -28.042113 0.000000 80.493292
LeftHand -22.912804 -0.000000 -1.464680
LeftHandThumb1 -26.253704 0.000000 33.147579
RightShoulder -10.798838 -50.135369 -15.211060
RightArm 63.556791 -13.883208 50.648526
RightForeArm 64.297013 -0.000000 83.061498
RightHand 3.802630 0.000000 24.438852
RightHandThumb1 -24.326973 -0.000000 -32.862282
LeftUpLeg -36.661390 11.799671 9.346423
LeftLeg 26.501763 -0.000000 -0.000000
LeftFoot -19.871570 12.615182 -0.576972
LeftToeBase 6.272294 -0.000000 -0.000000
RightUpLeg -166.443386 -5.444554 22.029874
RightLeg 87.398464 -0.000000 -0.000000
RightFoot 40.542185 -23.091715 7.639719
RightToeBase 48.191506 -0.000000 -0.000000
2935
root 8.524240 32.783275 -9.792047 33.241049 -21.712956 -21.309326
Spine -32.180404 -10.575923 20.689460
Head 9.980669 -7.873433 1.133965
LeftShoulder -0.226679 39.004010 30.447543
LeftArm 94.000790 26.463452 -36.023848
LeftForeArm -27.953808 0.000000 80.485020
LeftHand -22.915707 -0.000000 -1.407810
LeftHandThumb1 -26.253704 0.000000 33.147579
RightShoulder -10.798673 -50.154826 -15.170966
RightArm 63.527805 -13.830241 50.598729
RightForeArm 64.462471 -0.000000 83.012175
RightHand 3.812048 -0.000000 24.484091
RightHandThumb1 -24.326973 -0.000000 -32.862282
LeftUpLeg -36.653013 12.300971 9.025926
LeftLeg 26.501605 -0.000000 -0.000000
LeftFoot -19.885120 13.959652 -0.175250
LeftToeBase 6.363834 -0.000000 -0.000000
RightUpLeg -166.601251 -5.235132 22.128854
RightLeg 87.355666 -0.000000 -0.000000
RightFoot 40.379556 -23.220022 8.060254
RightToeBase 48.148162 -0.000000 -0.000000
2936
root 8.510784 32.775697 -9.779089 33.121442 -21.546842 -21.198520
Spine -32.288201 -10.691963 20.600395
Head 10.139714 -7.965110 1.155071
LeftShoulder -0.114257 38.958587 30.552119
LeftArm 94.021949 26.461089 -36.026946
LeftForeArm -27.801591 -0.000000 80.478901
LeftHand -22.964164 0.000000 -1.308403
LeftHandThumb1 -26.253704 0.000000 33.147579
RightShoulder -10.783551 -50.177789 -15.142459
RightArm 63.509513 -13.783374 50.536039
RightForeArm 64.555567 -0.000000 82.926609
RightHand 3.864899 -0.000000 24.586235
RightHandThumb1 -24.326973 -0.000000 -32.862282
LeftUpLeg -36.631994 12.814649 8.657018
LeftLeg 26.447896 -0.000000 -0.000000
LeftFoot -19.860525 15.060032 0.191993
LeftToeBase 6.350289 -0.000000 -0.000000
RightUpLeg -166.799224 -4.981568 22.212179
RightLeg 87.339332 -0.000000 -0.000000
RightFoot 40.180381 -23.377445 8.483583
RightToeBase 48.488838 -0.000000 -0.000000
2937
root 8.496904 32.767904 -9.761827 32.995651 -21.408159 -21.066286
Spine -32.407086 -10.793012 20.480555
Head 10.339980 -8.088283 1.150825
LeftShoulder -0.049902 38.933217 30.584288
LeftArm 94.106485 26.415270 -35.947510
LeftForeArm -27.686426 -0.000000 80.457491
LeftHand -23.002595 -0.000000 -1.249251
LeftHandThumb1 -26.253704 0.000000 33.147579
RightShoulder -10.811711 -50.192021 -15.078711
RightArm 63.491861 -13.735957 50.439762
RightForeArm 64.706829 -0.000000 82.854158
RightHand 3.896412 -0.000000 24.613037
RightHandThumb1 -24.326973 -0.000000 -32.862282
LeftUpLeg -36.582886 13.295181 8.281971
LeftLeg 26.375940 -0.000000 -0.000000
LeftFoot -19.766566 16.109361 0.740656
LeftToeBase 6.265701 -0.000000 -0.000000
RightUpLeg -167.023495 -4.706633 22.286563
RightLeg 87.338162 -0.000000 -0.000000
RightFoot 40.013960 -23.593375 8.913773
RightToeBase 48.477822 -0.000000 -0.000000
2938
root 8.484797 32.759197 -9.739688 32.883709 -21.250436 -20.917711
Spine -32.571898 -10.924916 20.403730
Head 10.536166 -8.166757 1.054502
LeftShoulder 0.025787 38.886494 30.594721
LeftArm 94.138442 26.401353 -35.909111
LeftForeArm -27.537005 -0.000000 80.475318
LeftHand -23.089804 -0.000000 -1.173133
LeftHandThumb1 -26.253704 0.000000 33.147579
RightShoulder -10.757634 -50.196848 -15.150895
RightArm 63.421425 -13.742742 50.447190
RightForeArm 64.839271 -0.000000 82.802880
RightHand 3.960536 0.000000 24.636452
RightHandThumb1 -24.326973 -0.000000 -32.862282
LeftUpLeg -36.577441 13.725450 7.908451
LeftLeg 26.360164 -0.000000 -0.000000
LeftFoot -19.772642 16.900325 0.970375
LeftToeBase 6.334974 -0.000000 -0.000000
RightUpLeg -167.288963 -4.426002 22.384332
RightLeg 87.390233 -0.000000 -0.000000
RightFoot 39.680208 -23.760523 9.285204
RightToeBase 48.665577 -0.000000 -0.000000
